<?xml version="1.0" encoding="UTF-8"?>
<svg width="22px" height="22px" viewBox="0 0 22 22" version="1.1" xmlns="http://www.w3.org/2000/svg" xmlns:xlink="http://www.w3.org/1999/xlink">
    <!-- Generator: sketchtool 64 (101010) - https://sketch.com -->
    <title>2299801A-6D1B-4E63-B424-E0680B6D01C4</title>
    <desc>Created with sketchtool.</desc>
    <defs>
        <path d="M46.3227025,45.3877465 C45.9217038,45.5214319 45.6070383,45.8360974 45.4733529,46.2370961 L43,53.6571548 L43.1968107,53.8539656 L47.0948384,49.9559379 C47.0671423,49.8485103 47.0289551,49.7448594 47.0289551,49.6286194 C47.0289551,48.8871171 47.6302979,48.2857742 48.3718003,48.2857742 C49.1133026,48.2857742 49.7146454,48.8871171 49.7146454,49.6286194 C49.7146454,50.3701217 49.1133026,50.9714645 48.3718003,50.9714645 C48.2555602,50.9714645 48.1519094,50.9332774 48.0444817,50.9055812 L44.146454,54.8036089 L44.3428452,55 L51.7629039,52.5266471 C52.1639811,52.3930888 52.4786952,52.0783747 52.6122535,51.6772975 L54,48.1493915 L49.8506085,44 L46.3227025,45.3877465 L46.3227025,45.3877465 Z M58.8670202,34.2175374 L51,42.793489 L55.2039645,47 L63.7747245,39.1282144 C67.4231727,35.9010015 62.0669311,30.5952521 58.8670202,34.2175374 Z" id="path-1"></path>
    </defs>
    <g id="Page-1" stroke="none" stroke-width="1" fill="none" fill-rule="evenodd">
        <g id="EPP-101-Redesign_Article-Page" transform="translate(-210.000000, -10426.000000)">
            <g id="About-Author" transform="translate(167.000000, 10393.000000)">
                <mask id="mask-2" fill="white">
                    <use xlink:href="#path-1"></use>
                </mask>
                <use id="pen-fancy" fill="#FC0000" fill-rule="nonzero" xlink:href="#path-1"></use>
            </g>
        </g>
    </g>
</svg>